<?xml version="1.0" encoding="UTF-8"?>
<!--Generator: Apple Native CoreSVG 341-->
<!DOCTYPE svg
PUBLIC "-//W3C//DTD SVG 1.1//EN"
       "http://www.w3.org/Graphics/SVG/1.1/DTD/svg11.dtd">
<svg version="1.1" xmlns="http://www.w3.org/2000/svg" xmlns:xlink="http://www.w3.org/1999/xlink" viewBox="0 0 115.137 89.8926">
 <g>
  <rect height="89.8926" opacity="0" width="115.137" x="0" y="0"/>
  <path d="M5.22461 16.4551L5.22461 23.3398L109.912 23.3398L109.912 16.4551ZM20.6055 89.8926L95.752 89.8926C108.057 89.8926 115.137 82.4707 115.137 69.2871L115.137 20.6543C115.137 7.4707 108.057 0 95.752 0L20.6055 0C7.4707 0 0 7.4707 0 20.6543L0 69.2871C0 82.4707 7.4707 89.8926 20.6055 89.8926ZM20.6543 82.0312C12.5488 82.0312 7.86133 77.3926 7.86133 69.2871L7.86133 20.6543C7.86133 12.5488 12.5488 7.86133 20.6543 7.86133L94.4824 7.86133C102.588 7.86133 107.275 12.5488 107.275 20.6543L107.275 69.2871C107.275 77.3926 102.588 82.0312 94.4824 82.0312Z" fill="white" fill-opacity="1"/>
  <path d="M20.9961 70.0684C20.9961 72.6074 22.7539 74.3164 25.3418 74.3164L89.9414 74.3164C92.5293 74.3164 94.2871 72.6074 94.2871 70.0684L94.2871 62.7441C94.2871 60.2051 92.5293 58.4961 89.9414 58.4961L25.3418 58.4961C22.7539 58.4961 20.9961 60.2051 20.9961 62.7441Z" fill="white" fill-opacity="1"/>
 </g>
</svg>
