<?xml version="1.0" encoding="UTF-8"?>
<!--Generator: Apple Native CoreSVG 341-->
<!DOCTYPE svg
PUBLIC "-//W3C//DTD SVG 1.1//EN"
       "http://www.w3.org/Graphics/SVG/1.1/DTD/svg11.dtd">
<svg version="1.1" xmlns="http://www.w3.org/2000/svg" xmlns:xlink="http://www.w3.org/1999/xlink" viewBox="0 0 99.6094 99.6582">
 <g>
  <rect height="99.6582" opacity="0" width="99.6094" x="0" y="0"/>
  <path d="M49.8047 99.6094C77.2949 99.6094 99.6094 77.2949 99.6094 49.8047C99.6094 22.3145 77.2949 0 49.8047 0C22.3145 0 0 22.3145 0 49.8047C0 77.2949 22.3145 99.6094 49.8047 99.6094ZM49.8047 91.3086C26.8555 91.3086 8.30078 72.7539 8.30078 49.8047C8.30078 26.8555 26.8555 8.30078 49.8047 8.30078C72.7539 8.30078 91.3086 26.8555 91.3086 49.8047C91.3086 72.7539 72.7539 91.3086 49.8047 91.3086Z" fill="white" fill-opacity="1"/>
  <path d="M49.1211 78.0762C60.1074 78.0762 69.5801 71.3379 72.8027 62.9883C73.6328 61.1328 72.5586 59.5703 70.5566 60.2539C68.6523 60.9375 65.3809 61.6211 62.207 61.6211C48.3887 61.6211 39.502 52.8809 39.502 39.0137C39.502 36.084 40.2832 32.0801 41.0645 29.8828C41.8457 28.0273 40.5762 26.709 38.4277 27.5879C28.9551 31.25 22.6074 41.5039 22.6074 52.2461C22.6074 67.2852 34.082 78.0762 49.1211 78.0762ZM63.6719 46.9238C64.2578 46.9238 64.6484 46.4355 64.7461 45.8496C65.8203 37.1582 66.3086 36.7188 75.1953 35.4004C75.8789 35.3027 76.3184 34.9609 76.3184 34.2773C76.3184 33.6914 75.8789 33.252 75.293 33.2031C66.3574 31.4941 66.0156 31.3477 64.7461 22.7051C64.6484 22.1191 64.2578 21.6797 63.6719 21.6797C63.0859 21.6797 62.6953 22.1191 62.5977 22.7051C61.3281 31.4453 61.084 31.9336 52.0508 33.2031C51.416 33.252 51.0254 33.6914 51.0254 34.2773C51.0254 34.9121 51.416 35.3027 52.0508 35.4004C61.084 37.1094 61.4746 37.2559 62.5977 45.8496C62.6953 46.4355 63.0859 46.9238 63.6719 46.9238Z" fill="white" fill-opacity="1"/>
 </g>
</svg>
