<?xml version="1.0" encoding="UTF-8"?>
<svg width="40px" height="40px" viewBox="0 0 40 40" version="1.1" xmlns="http://www.w3.org/2000/svg" xmlns:xlink="http://www.w3.org/1999/xlink">
    <title>Background 3</title>
    <defs>
        <linearGradient x1="50%" y1="0%" x2="50%" y2="100%" id="linearGradient-1">
            <stop stop-color="#818181" offset="0%"></stop>
            <stop stop-color="#4A4A4A" offset="100%"></stop>
        </linearGradient>
    </defs>
    <g id="Symbols" stroke="none" stroke-width="1" fill="none" fill-rule="evenodd">
        <g id="Lists/Forms/Rows/x/Left-Accessories/x/Icon-Background/Dark-Gray" transform="translate(-5, -5)" fill="url(#linearGradient-1)">
            <path d="M16.5374834,5 L33.4625166,5 C37.4743509,5 38.929139,5.41771525 40.3958057,6.20209717 C41.8624723,6.98647908 43.0135209,8.13752767 43.7979028,9.60419433 C44.5822847,11.070861 45,12.5256491 45,16.5374834 L45,33.4625166 C45,37.4743509 44.5822847,38.929139 43.7979028,40.3958057 C43.0135209,41.8624723 41.8624723,43.0135209 40.3958057,43.7979028 C38.929139,44.5822847 37.4743509,45 33.4625166,45 L16.5374834,45 C12.5256491,45 11.070861,44.5822847 9.60419433,43.7979028 C8.13752767,43.0135209 6.98647908,41.8624723 6.20209717,40.3958057 C5.41771525,38.929139 5,37.4743509 5,33.4625166 L5,16.5374834 C5,12.5256491 5.41771525,11.070861 6.20209717,9.60419433 C6.98647908,8.13752767 8.13752767,6.98647908 9.60419433,6.20209717 C11.070861,5.41771525 12.5256491,5 16.5374834,5 Z" id="Background"></path>
        </g>
    </g>
</svg>